<svg xmlns="http://www.w3.org/2000/svg" viewBox="0 0 100 100">
  <!-- Dark background -->
  <rect width="100" height="100" rx="20" fill="#0d1b2a"/>

  <!-- Controller outer body -->
  <path d="M50 22 C33 22 17 32 17 44 L17 54 C17 65 25 72 35 72 C40 72 44 69 46 64 L54 64 C56 69 60 72 65 72 C75 72 83 65 83 54 L83 44 C83 32 67 22 50 22 Z"
    fill="none" stroke="#00CFFF" stroke-width="5" stroke-linejoin="round"/>

  <!-- D-pad vertical -->
  <rect x="29" y="36" width="5" height="18" rx="2.5" fill="#00CFFF"/>
  <!-- D-pad horizontal -->
  <rect x="22" y="43" width="19" height="5" rx="2.5" fill="#00CFFF"/>

  <!-- Buttons (right side) -->
  <circle cx="63" cy="39" r="3.5" fill="#00CFFF"/>
  <circle cx="72" cy="39" r="3.5" fill="#00CFFF"/>

  <!-- Wrench handle (diagonal bar) -->
  <line x1="47" y1="64" x2="57" y2="40" stroke="#00CFFF" stroke-width="5" stroke-linecap="round"/>
  <!-- Wrench jaw (top) -->
  <path d="M54 37 Q62 30 67 37 L64 43 Q58 46 54 43 Z" fill="#00CFFF"/>
  <!-- Wrench round end (bottom) -->
  <circle cx="46" cy="65" r="5" fill="#00CFFF"/>
</svg>
